<?xml version="1.0" encoding="iso-8859-1"?>
<!-- Generator: Adobe Illustrator 19.0.0, SVG Export Plug-In . SVG Version: 6.00 Build 0)  -->
<svg version="1.1" id="Layer_1" xmlns="http://www.w3.org/2000/svg" xmlns:xlink="http://www.w3.org/1999/xlink" x="0px" y="0px"
	 viewBox="0 0 512 512" style="enable-background:new 0 0 512 512;" xml:space="preserve">
<g>
	<path style="fill:#22ACDD;" d="M19.136,117.176v62.048h71.712v-62.048h19.36v148.288h-19.36v-69.52H19.136v69.52H0V117.176H19.136z
		"/>
	<path style="fill:#22ACDD;" d="M171.552,133.464h-45.104v-16.288h109.776v16.304h-45.312v131.984h-19.36V133.464z"/>
	<path style="fill:#22ACDD;" d="M377.632,200.328c-1.104-20.672-2.432-45.536-2.192-64.016h-0.672
		c-5.056,17.392-11.216,35.872-18.704,56.336l-26.176,71.92h-14.512l-23.984-70.608c-7.04-20.896-12.976-40.048-17.152-57.648
		h-0.432c-0.448,18.496-1.552,43.36-2.864,65.568l-3.968,63.568H248.72l10.336-148.288h24.416l25.296,71.728
		c6.176,18.256,11.232,34.528,14.96,49.952h0.672c3.744-14.96,9.024-31.264,15.6-49.952l26.416-71.728h24.416l9.232,148.288h-18.688
		L377.632,200.328z"/>
	<path style="fill:#22ACDD;" d="M429.504,117.176h19.136V249.4H512v16.064h-82.496V117.176z"/>
</g>
<rect y="378.552" width="512" height="16.288"/>
<g>
	<rect x="380.112" y="322.888" style="fill:#FF6600;" width="131.888" height="27.92"/>
	<rect x="183.168" y="322.888" style="fill:#FF6600;" width="131.888" height="27.92"/>
	<rect y="322.888" style="fill:#FF6600;" width="131.888" height="27.92"/>
</g>
<g>
</g>
<g>
</g>
<g>
</g>
<g>
</g>
<g>
</g>
<g>
</g>
<g>
</g>
<g>
</g>
<g>
</g>
<g>
</g>
<g>
</g>
<g>
</g>
<g>
</g>
<g>
</g>
<g>
</g>
</svg>
